<?xml version="1.0" encoding="utf-8"?>
<!-- Generator: Adobe Illustrator 19.2.0, SVG Export Plug-In . SVG Version: 6.00 Build 0)  -->
<svg version="1.1" id="Layer_1" xmlns="http://www.w3.org/2000/svg" xmlns:xlink="http://www.w3.org/1999/xlink" x="0px" y="0px"
	 viewBox="0 0 24 24" width="24px" style="enable-background:new 0 0 24 24;" xml:space="preserve">
<style type="text/css">
	.st0{fill:#A8A8A8;}
</style>
<path class="st0" d="M6,12c0,1.7-1.3,3-3,3s-3-1.3-3-3s1.3-3,3-3S6,10.3,6,12z M15,12c0,1.7-1.3,3-3,3s-3-1.3-3-3s1.3-3,3-3
	S15,10.3,15,12z M24,12c0,1.7-1.3,3-3,3s-3-1.3-3-3s1.3-3,3-3S24,10.3,24,12z"/>
</svg>
