<?xml version="1.0" encoding="utf-8"?>
<!-- Generator: Adobe Illustrator 19.2.0, SVG Export Plug-In . SVG Version: 6.00 Build 0)  -->
<svg version="1.1" id="Layer_1" xmlns="http://www.w3.org/2000/svg" xmlns:xlink="http://www.w3.org/1999/xlink" x="0px" y="0px"
	 viewBox="0 0 48 48" style="enable-background:new 0 0 48 48;" xml:space="preserve">
<style type="text/css">
	.st0{fill:#0277BD;}
	.st1{fill:#039BE5;}
	.st2{fill:#FFFFFF;}
	.st3{fill:#EEEEEE;}
	.st4{fill:#595959;}
	.st5{font-family:'Montserrat-ExtraBold';}
	.st6{font-size:10px;}
</style>
<g id="surface1">
	<path class="st0" d="M41.1,8.8h-34l3,34l14,4l14-4L41.1,8.8z"/>
	<path class="st1" d="M24.1,11.8v31.9l11.2-3.2l2.5-28.7H24.1z"/>
	<path class="st2" d="M33.2,16.8h-9.1v4H29l-0.3,4h-4.6v4h4.4l-0.3,4.5l-4.1,1.4v4.2l7.9-2.6l0.7-11.5L33.2,16.8z"/>
	<path class="st3" d="M24.1,16.8v4h-8.9l-0.3-4H24.1z M19.5,24.8l0.2,4h4.4v-4H19.5z M19.9,30.8h-4l0.3,5.5l7.9,2.6v-4.2L20,33.3
		L19.9,30.8z"/>
</g>
<text transform="matrix(1 0 0 1 11.3332 8)" class="st4 st5 st6">CSS3</text>
</svg>
