<?xml version="1.0" encoding="utf-8"?>
<!-- Generator: Adobe Illustrator 19.2.0, SVG Export Plug-In . SVG Version: 6.00 Build 0)  -->
<svg version="1.1" id="Layer_1" xmlns="http://www.w3.org/2000/svg" xmlns:xlink="http://www.w3.org/1999/xlink" x="0px" y="0px"
	 viewBox="0 0 48 48" style="enable-background:new 0 0 48 48;" xml:space="preserve">
<style type="text/css">
	.st0{fill:#E65100;}
	.st1{fill:#FF6D00;}
	.st2{fill:#FFFFFF;}
	.st3{fill:#EEEEEE;}
	.st4{fill:#595959;}
</style>
<g id="surface1">
	<path class="st0" d="M41,9H7l3,34l14,4l14-4L41,9z"/>
	<path class="st1" d="M24,12v31.9l11.2-3.2L37.7,12H24z"/>
	<path class="st2" d="M24,29v-4h8.6l-0.7,11.5L24,39.1v-4.2l4.1-1.4l0.3-4.5H24z M32.9,21l0.3-4H24v4H32.9z"/>
	<path class="st3" d="M24,34.9v4.2l-7.9-2.6L15.7,31h4l0.2,2.5L24,34.9z M19.1,21H24v-4h-9.1l0.7,12H24v-4h-4.6L19.1,21z"/>
</g>
<g>
	<path class="st4" d="M13.4,0.7v7h-2V4.9H8.7v2.7h-2v-7h2v2.6h2.7V0.7H13.4z"/>
	<path class="st4" d="M16.2,2.2h-2.1V0.7h6.3v1.6h-2.1v5.4h-2V2.2z"/>
	<path class="st4" d="M27.4,7.7l0-3.7l-1.8,3h-0.9l-1.8-2.9v3.6h-1.8v-7h1.6l2.5,4l2.4-4h1.6l0,7H27.4z"/>
	<path class="st4" d="M30.6,0.7h2v5.4H36v1.6h-5.3V0.7z"/>
	<path class="st4" d="M41.9,5.4c0,1.2-0.9,2.4-3,2.4c-1,0-2-0.2-2.7-0.7l0.7-1.5c0.6,0.4,1.3,0.6,1.9,0.6s1.1-0.3,1.1-0.7
		c0-0.4-0.3-0.7-1.4-0.7h-1.9L37,0.7h4.5v1.5h-2.8l-0.1,1H39C41.1,3.2,41.9,4.2,41.9,5.4z"/>
</g>
</svg>
