<?xml version="1.0" encoding="UTF-8"?>
<svg xmlns="http://www.w3.org/2000/svg" xmlns:xlink="http://www.w3.org/1999/xlink" viewBox="0 0 48 48" version="1.1" width="48px" height="48px">
<g id="surface1">
<path style=" fill:#FF5722;" d="M 6 10 C 6 7.789063 7.789063 6 10 6 L 38 6 C 40.210938 6 42 7.789063 42 10 L 42 38 C 42 40.210938 40.210938 42 38 42 L 10 42 C 7.789063 42 6 40.210938 6 38 Z "/>
<path style=" fill:#1C0802;" d="M 9 9 L 9 39 L 39 39 L 39 9 Z M 23.691406 31 L 22.929688 28.089844 L 19.011719 28.089844 L 18.253906 31 L 15.214844 31 L 19.65625 16.78125 L 22.285156 16.78125 L 26.757813 31 Z M 30.851563 31 L 28.078125 31 L 28.078125 20.433594 L 30.851563 20.433594 Z M 30.550781 18.753906 C 30.28125 19.035156 29.914063 19.175781 29.453125 19.175781 C 28.988281 19.175781 28.625 19.035156 28.355469 18.753906 C 28.082031 18.472656 27.949219 18.121094 27.949219 17.699219 C 27.949219 17.269531 28.085938 16.917969 28.359375 16.644531 C 28.632813 16.371094 28.996094 16.234375 29.453125 16.234375 C 29.90625 16.234375 30.273438 16.371094 30.546875 16.644531 C 30.820313 16.917969 30.957031 17.269531 30.957031 17.699219 C 30.957031 18.121094 30.820313 18.472656 30.550781 18.753906 Z "/>
<path style=" fill:#1C0802;" d="M 19.640625 25.695313 L 22.296875 25.695313 L 20.96875 20.628906 Z "/>
</g>
</svg>
