<?xml version="1.0" encoding="utf-8"?>
<!-- Generator: Adobe Illustrator 19.2.0, SVG Export Plug-In . SVG Version: 6.00 Build 0)  -->
<svg version="1.1" id="Layer_1" xmlns="http://www.w3.org/2000/svg" xmlns:xlink="http://www.w3.org/1999/xlink" x="0px" y="0px"
	 viewBox="0 0 46 46" style="enable-background:new 0 0 50 50;" xml:space="preserve">
<style type="text/css">
	.st0{fill:#595959;}
</style>
<g id="surface1">
	<path class="st0" d="M6.7,4C5.2,4,4,5.2,4,6.7v36.7C4,44.8,5.2,46,6.7,46h36.7c1.5,0,2.7-1.2,2.7-2.7V6.7C46,5.2,44.8,4,43.3,4H6.7
		z M6.7,6h36.7C43.7,6,44,6.3,44,6.7v36.7c0,0.4-0.3,0.7-0.7,0.7H6.7C6.3,44,6,43.7,6,43.3V6.7C6,6.3,6.3,6,6.7,6z M23,23v12.6
		c0,1.9-0.7,2.4-2,2.4c-1.3,0-2.2-0.8-2.9-1.9L15,38c0.9,1.9,3.1,4,6.2,4c3.4,0,5.8-1.8,5.8-5.8V23H23z M35.5,23
		c-3.4,0-5.6,2.2-5.6,5c0,3.1,1.8,4.6,4.6,5.7l1,0.4c1.7,0.8,2.6,1.2,2.6,2.5c0,1.1-0.8,1.9-2.4,1.9c-1.9,0-2.8-1.3-3.6-2.6l-3,2
		c1.1,2.2,3.1,4,6.7,4c3.6,0,6.3-1.9,6.3-5.3c0-3.2-1.8-4.6-5.1-6l-1-0.4c-1.6-0.7-2.3-1.2-2.3-2.3c0-0.9,0.7-1.6,1.8-1.6
		c1.1,0,1.8,0.5,2.5,1.6l3-1.9C39.6,23.8,37.9,23,35.5,23z"/>
</g>
</svg>
