<?xml version="1.0" encoding="UTF-8"?>
<svg width="200px" enable-background="new 0 0 140.9 32.3" version="1.1" viewBox="0 0 140.9 32.3" xml:space="preserve" xmlns="http://www.w3.org/2000/svg">
<style type="text/css">
	.st0{fill:none;stroke:#9e2945;stroke-width:3;stroke-linejoin:round;stroke-miterlimit:10;}
	path{stroke:none;fill:#9e2945;stroke-width:0.3;stroke-linejoin:round;stroke-miterlimit:10;}
</style>
<rect id="rect" class="st0" x="1.5" y="1.5" width="29.3" height="29.3"/>
	<path id="mAlpha" d="m20.7 22.8v-7.3l-3.6 6h-1.7l-3.5-5.8v7.1h-3.7v-13.9h3.2l4.9 8 4.7-8h3.2v13.8l-3.5 0.1z"/>
	<path id="letter" d="m46.1 16.8v6.4h-3.1v-1.4c-0.6 1-1.8 1.6-3.4 1.6-2.6 0-4.2-1.5-4.2-3.4 0-2 1.4-3.4 4.9-3.4h2.6c0-1.4-0.8-2.2-2.6-2.2-1.2 0-2.4 0.4-3.3 1l-1.2-2.3c1.2-0.9 3.1-1.4 4.9-1.4 3.4 0.1 5.4 1.7 5.4 5.1zm-3.2 2.9v-1.2h-2.2c-1.5 0-2 0.6-2 1.3 0 0.8 0.7 1.4 1.8 1.4 1 0 2-0.5 2.4-1.5z"/>
	<path id="letter" d="m48.7 8.6c0-1 0.8-1.8 2-1.8s2 0.8 2 1.8c0 1.1-0.8 1.9-2 1.9s-2-0.9-2-1.9zm0.4 3.4h3.3v11.3h-3.3v-11.3z"/>
	<path id="letter" d="m54.3 22.2l1.1-2.4c1 0.7 2.5 1.1 3.9 1.1 1.5 0 2.1-0.4 2.1-1 0-1.8-6.8 0-6.8-4.5 0-2.1 1.9-3.7 5.2-3.7 1.6 0 3.3 0.4 4.3 1l-1.1 2.3c-1.1-0.6-2.2-0.8-3.3-0.8-1.5 0-2.1 0.5-2.1 1 0 1.9 6.8 0.1 6.8 4.5 0 2.1-2 3.6-5.3 3.6-1.8 0.1-3.7-0.4-4.8-1.1z"/>
	<path id="letter" d="m65.7 17.6c0-3.4 2.6-5.8 6.2-5.8s6.2 2.4 6.2 5.8-2.6 5.8-6.2 5.8-6.2-2.4-6.2-5.8zm9.1 0c0-2-1.2-3.1-2.9-3.1s-2.9 1.2-2.9 3.1c0 2 1.3 3.1 2.9 3.1s2.9-1.1 2.9-3.1z"/>
	<path id="letter" d="m91.9 16.8v6.5h-3.3v-6c0-1.8-0.8-2.7-2.3-2.7-1.6 0-2.7 1-2.7 3v5.6h-3.3v-11.2h3.1v1.3c0.9-1 2.2-1.5 3.7-1.5 2.8 0 4.8 1.5 4.8 5z"/>
	<path id="letter" d="m113.6 16.8v6.4h-1v-6.3c0-2.5-1.3-3.8-3.4-3.8-2.5 0-4 1.7-4 4.3v5.8h-1v-6.3c0-2.5-1.3-3.8-3.4-3.8-2.5 0-4 1.7-4 4.3v5.8h-1v-11h1v2.4c0.7-1.5 2.2-2.4 4.2-2.4s3.4 0.9 4 2.6c0.7-1.6 2.3-2.6 4.4-2.6 2.4 0 4.2 1.6 4.2 4.6z"/>
	<path id="letter" d="m116.7 17.8c0-3.3 2.3-5.6 5.5-5.6s5.5 2.3 5.5 5.6-2.3 5.6-5.5 5.6-5.5-2.4-5.5-5.6zm9.9 0c0-2.8-1.9-4.6-4.4-4.6s-4.4 1.9-4.4 4.6c0 2.8 1.9 4.6 4.4 4.6s4.4-1.9 4.4-4.6z"/>
	<path id="letter" d="m138.8 16.3v6.9h-1v-2c-0.7 1.3-2 2-3.9 2-2.5 0-3.9-1.3-3.9-3.1 0-1.7 1.1-3.1 4.1-3.1h3.8v-0.9c0-2-1.1-3.1-3.3-3.1-1.5 0-2.9 0.6-3.8 1.4l-0.5-0.8c1.1-1 2.7-1.6 4.4-1.6 2.6 0.2 4.1 1.6 4.1 4.3zm-1 3.7v-2h-3.8c-2.3 0-3.1 0.9-3.1 2.2 0 1.4 1.1 2.3 3 2.3s3.2-0.9 3.9-2.5z"/>
</svg>