<?xml version="1.0" encoding="utf-8"?>
<!-- Generator: Adobe Illustrator 19.2.0, SVG Export Plug-In . SVG Version: 6.00 Build 0)  -->
<svg version="1.1" id="Layer_1" xmlns="http://www.w3.org/2000/svg" xmlns:xlink="http://www.w3.org/1999/xlink" x="0px" y="0px"
	 viewBox="0 0 50 50" style="enable-background:new 0 0 50 50;" xml:space="preserve">
<style type="text/css">
	.st0{fill:#29D8FD;}
</style>
<path class="st0" d="M34.6,4c-0.8,0-1.6,0.1-2.4,0.4c-1.6,0.5-3.4,1.6-5.1,3c-0.7,0.6-1.4,1.2-2.1,1.9c-0.7-0.7-1.4-1.3-2-1.8
	c-1.8-1.4-3.5-2.5-5.1-3c-1.6-0.5-3.3-0.5-4.6,0.2s-2.1,2.2-2.5,3.9c-0.4,1.7-0.3,3.7,0,5.9c0.1,0.8,0.3,1.6,0.5,2.4
	c-0.8,0.2-1.5,0.5-2.2,0.7c-2.1,0.8-3.8,1.8-5,2.9S2,23.1,2,24.6s0.8,2.9,2.1,4.1s3,2.1,5,2.9c0.7,0.3,1.5,0.5,2.3,0.8
	c-0.3,1.1-0.5,2.2-0.7,3.2c-0.4,2.2-0.4,4.2,0,5.9c0.4,1.7,1.2,3.1,2.5,3.9c1.3,0.8,3,0.8,4.6,0.2s3.3-1.6,5.1-3
	c0.7-0.6,1.4-1.2,2.1-1.9c0.7,0.7,1.4,1.3,2.1,1.9c1.8,1.4,3.5,2.5,5.1,3s3.3,0.5,4.6-0.2s2.1-2.2,2.5-3.9s0.3-3.7,0-5.9
	c-0.2-1-0.4-2.1-0.7-3.2c0.8-0.3,1.7-0.5,2.4-0.8c2.1-0.8,3.8-1.8,5-2.9s2.1-2.5,2.1-4.1s-0.8-2.9-2.1-4.1c-1.2-1.2-3-2.1-5-2.9
	c-0.7-0.3-1.4-0.5-2.2-0.8c0.2-0.8,0.4-1.7,0.5-2.4c0.4-2.2,0.4-4.2,0-5.9c-0.4-1.7-1.2-3.1-2.5-3.9C36.1,4.2,35.3,4,34.6,4z
	 M34.5,6c0.5,0,0.9,0.1,1.3,0.3c0.7,0.4,1.2,1.2,1.5,2.5c0.3,1.3,0.3,3.1-0.1,5.2c-0.1,0.7-0.3,1.5-0.5,2.2c-2-0.5-4.3-0.9-6.7-1.1
	c-1.2-1.7-2.4-3.2-3.7-4.5c0.7-0.6,1.3-1.2,1.9-1.8c1.6-1.3,3.2-2.2,4.4-2.6C33.4,6.1,34,6,34.5,6z M15.5,6c0.5,0,1.1,0.1,1.7,0.3
	C18.5,6.7,20,7.6,21.6,9c0.6,0.5,1.3,1.1,1.9,1.7c-1.3,1.4-2.5,2.9-3.7,4.6c-2.4,0.2-4.6,0.6-6.6,1.1c-0.2-0.8-0.4-1.5-0.5-2.2
	c-0.3-2.1-0.3-3.9-0.1-5.2c0.3-1.3,0.8-2.1,1.5-2.5C14.6,6.2,15,6,15.5,6z M25,12.1c0.8,0.9,1.6,1.9,2.4,2.9C26.6,15,25.8,15,25,15
	c-0.8,0-1.7,0-2.5,0.1C23.3,14,24.2,13,25,12.1z M25,17c1.4,0,2.7,0.1,4,0.2c0.9,1.3,1.8,2.6,2.6,4.1c0.7,1.3,1.4,2.5,2,3.8
	c-0.6,1.3-1.3,2.5-2,3.8c-0.6,1.1-1.3,2.2-2,3.2c-1.5,0.1-3,0.2-4.5,0.2c-1.6,0-3.1-0.1-4.6-0.2c-0.7-1-1.3-2.1-2-3.2
	c-0.7-1.3-1.4-2.5-2-3.8c0.6-1.3,1.3-2.5,2-3.8c0.8-1.4,1.7-2.8,2.6-4C22.3,17.1,23.6,17,25,17z M31.5,17.4c1.6,0.2,3.2,0.5,4.6,0.8
	c-0.4,1.4-1,2.9-1.6,4.4c-0.4-0.8-0.8-1.6-1.3-2.4C32.7,19.2,32.1,18.3,31.5,17.4z M18.3,17.4c-0.6,0.9-1.1,1.8-1.7,2.8
	c-0.5,0.8-0.9,1.6-1.3,2.4c-0.6-1.5-1.2-3-1.6-4.3C15.2,17.9,16.7,17.6,18.3,17.4z M38.2,18.8c0.7,0.2,1.4,0.4,2,0.7
	c1.9,0.7,3.4,1.6,4.4,2.5s1.4,1.8,1.4,2.6s-0.4,1.7-1.4,2.6s-2.5,1.8-4.4,2.5c-0.7,0.3-1.5,0.5-2.3,0.8c-0.6-1.8-1.3-3.6-2.2-5.5
	C36.8,22.9,37.6,20.8,38.2,18.8z M11.8,18.8c0.6,2,1.4,4,2.4,6.2c-0.9,1.9-1.6,3.7-2.2,5.5c-0.8-0.2-1.5-0.5-2.2-0.7
	c-1.9-0.7-3.4-1.6-4.4-2.5S4,25.4,4,24.6s0.4-1.7,1.4-2.6s2.5-1.8,4.4-2.5C10.4,19.2,11.1,19,11.8,18.8z M25,20c-2.7,0-5,2.3-5,5
	s2.3,5,5,5s5-2.3,5-5S27.7,20,25,20z M15.3,27.4c0.4,0.8,0.9,1.6,1.3,2.4c0.4,0.6,0.7,1.3,1.1,1.9c-1.3-0.2-2.6-0.4-3.8-0.7
	C14.4,29.8,14.8,28.6,15.3,27.4z M34.6,27.4c0.5,1.2,1,2.5,1.4,3.6c-1.2,0.3-2.5,0.5-3.8,0.7c0.4-0.6,0.8-1.2,1.1-1.9
	C33.8,29,34.2,28.2,34.6,27.4z M13.4,32.9c1.8,0.4,3.8,0.8,5.9,1c1.4,2,2.8,3.8,4.3,5.4c-0.7,0.6-1.3,1.2-1.9,1.7
	c-1.6,1.3-3.2,2.2-4.5,2.6s-2.2,0.4-3-0.1c-0.7-0.4-1.2-1.2-1.5-2.5c-0.3-1.3-0.3-3.1,0.1-5.2C12.9,35,13.1,34,13.4,32.9z
	 M36.6,32.9c0.3,1,0.5,2.1,0.7,3c0.3,2.1,0.3,3.9,0.1,5.2s-0.8,2.1-1.5,2.6s-1.7,0.5-3,0.1c-1.3-0.4-2.8-1.3-4.5-2.6
	c-0.6-0.5-1.3-1.1-1.9-1.8c1.5-1.6,2.9-3.4,4.3-5.4C32.8,33.7,34.7,33.4,36.6,32.9z M21.9,34.1c1,0.1,2.1,0.1,3.1,0.1c1,0,2,0,3-0.1
	c-1,1.4-2.1,2.6-3.1,3.7C23.9,36.7,22.9,35.5,21.9,34.1z"/>
</svg>
