<?xml version="1.0" encoding="UTF-8"?>
<svg enable-background="new 0 0 18 33.2" version="1.1" viewBox="0 0 18 33.2" xml:space="preserve" xmlns="http://www.w3.org/2000/svg">
<style type="text/css">
	.st0{fill:#D8D8D8;}
	.st1{fill:#ED852B;}
	.st2{fill:#A62F42;}
</style>
	<path class="st0" d="m9 11c1.1 0 2-0.9 2-2s-0.9-2-2-2-2 0.9-2 2 0.9 2 2 2zm0-2.7c0.4 0 0.7 0.3 0.7 0.7s-0.3 0.7-0.7 0.7-0.7-0.3-0.7-0.7 0.3-0.7 0.7-0.7z"/>
	<path class="st0" d="M12.3,20C14.8,14.8,16,6.9,10,0.9C9.7,0.6,9.3,0.3,9,0C8.7,0.3,8.4,0.5,8.1,0.8C2,6.9,3.2,15,5.7,20H12.3z    M9,2.8c3.9,4.3,4.2,9.9,2,15.2H7C5.8,15.1,4,8.4,9,2.8z"/>
	<path class="st0" d="m16 15.2c-0.1 0.7-0.3 1.3-0.4 1.9 0.5 0.8 0.8 1.8 0.9 2.8-0.4-0.4-0.9-0.7-1.5-0.9-0.2 0.5-0.4 1-0.6 1.4 1.7 0.7 2.1 2.1 2.3 3.6 0.8-1 1.4-2.4 1.4-3.9-0.1-1.6-0.7-3.4-2.1-4.9z"/>
	<path class="st0" d="m3.7 20.4c-0.3-0.4-0.5-0.9-0.6-1.4-0.6 0.2-1.1 0.5-1.5 0.9 0.1-1 0.4-2 0.9-2.8-0.2-0.6-0.3-1.2-0.4-1.9-1.4 1.5-2 3.2-2 4.9-0.1 1.5 0.4 2.9 1.3 3.9 0.2-1.5 0.6-2.8 2.3-3.6z"/>
	<rect class="st1" x="5.7" y="21.6" width="1.3" height="8"/>
	<rect class="st2" x="8.4" y="24" width="1.3" height="8"/>
	<rect class="st1" x="11" y="21.8" width="1.3" height="8"/>
</svg>
